<?xml version="1.0" encoding="utf-8"?>
<!-- Generator: Adobe Illustrator 28.1.0, SVG Export Plug-In . SVG Version: 6.00 Build 0)  -->
<svg version="1.1" id="图层_1" xmlns="http://www.w3.org/2000/svg" xmlns:xlink="http://www.w3.org/1999/xlink" x="0px" y="0px"
	 viewBox="0 0 292.6 216.4" style="enable-background:new 0 0 292.6 216.4;" xml:space="preserve">
<style type="text/css">
	.st0{fill:#FFFFFF;}
</style>
<path class="st0" d="M273.5,97.7c-15.4-15.5-37.4-22.7-59-19.2c0.6-3.6,0.9-7.2,0.9-10.8C214,29.9,182.1,0.3,144.3,1.8
	c-35.8,1.4-64.6,30.1-65.9,65.9c0,3.6,0.3,7.2,0.9,10.8C41.9,72.6,6.8,98.1,0.9,135.4s19.6,72.5,56.9,78.4
	c21.7,3.4,43.6-3.7,59.2-19.2c3.4-3.4,7.6-7.8,10.1-11.6l-20.4-18.4c-2,4.3-4.8,8.2-8.2,11.5c-16.5,16.5-43.3,16.5-59.8-0.1
	s-16.5-43.3,0.1-59.8c16.5-16.5,43.2-16.5,59.7,0l78.3,78.4l0,0c27.3,26.1,70.7,25.2,96.8-2.2C298.9,165.9,298.9,124.2,273.5,97.7z
	 M255,176.1c-16.5,16.5-43.3,16.5-59.8,0l0,0c0,0-77.4-77.6-78.3-78.4l-0.5-0.5l0,0c-16.2-16.8-15.7-43.6,1.2-59.8
	s43.6-15.7,59.8,1.2c7.5,7.9,11.8,18.3,11.8,29.2c0,10.1-3.7,19.8-10.2,27.5v0.2c-0.8,0.7-1.6,1.4-2.3,2.2c-3.7,3.7-7,7.8-9.8,12.2
	l19.4,19.4c1.9-4.5,4.5-8.6,7.9-12.1c0.6-0.6,1.3-1.2,1.9-1.9c16.8-16.3,43.6-15.8,59.9,0.9S271.8,159.8,255,176.1L255,176.1z"/>
</svg>
