<?xml version="1.0" encoding="utf-8"?>
<!-- Generator: Adobe Illustrator 28.1.0, SVG Export Plug-In . SVG Version: 6.00 Build 0)  -->
<svg version="1.1" id="图层_1" xmlns="http://www.w3.org/2000/svg" xmlns:xlink="http://www.w3.org/1999/xlink" x="0px" y="0px"
	 viewBox="0 0 801.3 216.4" style="enable-background:new 0 0 801.3 216.4;" xml:space="preserve">
<style type="text/css">
	.st0{fill:#0168F5;}
</style>
<path class="st0" d="M274,99c-15.4-15.5-37.4-22.7-59-19.2c0.6-3.6,0.9-7.2,0.9-10.8c-1.4-37.9-33.3-67.4-71.2-65.9
	C108.9,4.4,80.2,33.2,78.8,69c0,3.6,0.3,7.2,0.9,10.8C42.3,73.9,7.2,99.4,1.3,136.7s19.6,72.5,56.9,78.4
	c21.7,3.4,43.6-3.7,59.2-19.2c3.4-3.4,7.6-7.8,10.1-11.6l-20.4-18.4c-2,4.3-4.8,8.2-8.2,11.5c-16.5,16.5-43.3,16.5-59.8-0.1
	s-16.5-43.3,0.1-59.8c16.5-16.5,43.2-16.5,59.7,0l78.3,78.4l0,0c27.3,26.1,70.7,25.2,96.8-2.2C299.4,167.2,299.4,125.5,274,99z
	 M255.5,177.4c-16.5,16.5-43.3,16.5-59.8,0l0,0c0,0-77.4-77.6-78.3-78.4l-0.5-0.5l0,0c-16.2-16.8-15.7-43.6,1.2-59.8
	s43.6-15.7,59.8,1.2c7.5,7.9,11.8,18.3,11.8,29.2c0,10.1-3.7,19.8-10.2,27.5v0.2c-0.8,0.7-1.6,1.4-2.3,2.2c-3.7,3.7-7,7.8-9.8,12.2
	l19.4,19.4c1.9-4.5,4.5-8.6,7.9-12.1c0.6-0.6,1.3-1.2,1.9-1.9c16.8-16.3,43.6-15.8,59.9,0.9C272.7,134.3,272.3,161.1,255.5,177.4
	L255.5,177.4z"/>
<g>
	<path d="M367,108.3h108.2V38.7H335.1v69.6h14.2l-23.6,44.2h17.6l9-16.8h21.9l-29.5,54.7h17.6l29.5-54.7h28.3l-29.5,54.7h17.7
		l29.5-54.7h28.8v40.6h-24.7v15.4h40.2v-71.5H360.6L367,108.3z M350.6,54.2h109.1v12.1H350.6V54.2z M350.6,92.8v-11h109.1v11H350.6z
		"/>
	<polygon points="524.5,63.4 510.3,39.6 490.3,39.6 505.5,63.4 	"/>
	<polygon points="633.3,39.6 539.8,39.6 539.8,54.9 569,54.9 569,100 541.8,100 541.8,115.3 569,115.3 569,190.8 584.3,190.8 
		584.3,115.3 609.8,115.3 609.8,100 584.3,100 584.3,54.9 618,54.9 618,190.8 644.7,190.8 644.7,176.2 633.3,176.2 	"/>
	<polygon points="525,76.9 493.6,76.9 493.6,92.2 509.7,92.2 509.7,175 509.7,190.8 534.1,190.8 534.1,176.2 525,176.2 	"/>
	<polygon points="801.3,107 801.3,92.2 656.2,92.2 656.2,107 695.2,107 664.2,189.5 774.2,189.5 795.1,189.5 776,135.1 757.9,135.1 
		771.5,175.8 721.9,175.8 721.9,175.8 687.1,175.8 712.4,107 	"/>
	<rect x="673.3" y="41.1" width="112.9" height="14.8"/>
</g>
</svg>
